<svg id="layer" xmlns="http://www.w3.org/2000/svg" xmlns:xlink="http://www.w3.org/1999/xlink" viewBox="0 0 158 131"><defs><style>.cls-1{fill:none;}.cls-2{clip-path:url(#clip-path);}.cls-3{clip-path:url(#clip-path-2);}.cls-4{fill:#2f3135;}</style><clipPath id="clip-path"><rect class="cls-1" width="158" height="131"/></clipPath><clipPath id="clip-path-2"><rect class="cls-1" x="9.08" y="-23.3" width="161.3" height="161.3"/></clipPath></defs><title>hyperledger</title><g class="cls-2"><g class="cls-3"><path class="cls-4" d="M55.68,121l-.5-.2L19.68,70.5l-.1-.6L45.28,14l.5-.3L107,8l.5.2L143,58.5l.1.6L117.38,115l-.5.3L55.68,121ZM20.88,70.1,56,119.8l60.5-5.6,25.4-55.3L106.78,9.2l-60.5,5.6Zm96,44.6Z"/><path class="cls-4" d="M55.48,120.9l-9.8-51.2V13.8l47.9,14.1,49.6,30.9-36.9,32.8ZM46.18,14.6V69.7l9.7,50.3,50-28.9,36.2-32.2L93.18,28.5Z"/><path class="cls-4" d="M96.08,28.5a1.8,1.8,0,1,1-1.8-1.8,1.79,1.79,0,0,1,1.8,1.8"/><path class="cls-4" d="M94.28,32.1A3.7,3.7,0,1,1,98,28.4a3.76,3.76,0,0,1-3.7,3.7m0-3.7-.1.1.1.1Z"/><path class="cls-4" d="M108,91.2a1.8,1.8,0,1,1-1.8-1.8,1.79,1.79,0,0,1,1.8,1.8"/><path class="cls-4" d="M106.18,94.9a3.69,3.69,0,0,1-3.7-3.7,3.63,3.63,0,0,1,3.7-3.7,3.7,3.7,0,0,1,0,7.4m0-3.8-.1.1.1.1Z"/><path class="cls-4" d="M57.88,120.4a1.8,1.8,0,1,1-1.8-1.8,1.79,1.79,0,0,1,1.8,1.8"/><path class="cls-4" d="M56.08,124.1a3.7,3.7,0,1,1,3.7-3.7,3.69,3.69,0,0,1-3.7,3.7m0-3.8-.1.1.1.1Z"/><path class="cls-4" d="M47.68,70.3a1.8,1.8,0,1,1-1.8-1.8,1.79,1.79,0,0,1,1.8,1.8"/><path class="cls-4" d="M45.88,73.9a3.7,3.7,0,1,1,3.7-3.7,3.69,3.69,0,0,1-3.7,3.7m0-3.7-.1.1.1.1Z"/><path class="cls-4" d="M144.38,58.9a1.8,1.8,0,1,1-1.8-1.8,1.79,1.79,0,0,1,1.8,1.8"/><path class="cls-4" d="M142.58,62.6a3.7,3.7,0,1,1,3.7-3.7,3.76,3.76,0,0,1-3.7,3.7m0-3.8-.1.1.1.1Z"/><path class="cls-4" d="M47.68,14.2a1.8,1.8,0,1,1-1.8-1.8,1.79,1.79,0,0,1,1.8,1.8"/><path class="cls-4" d="M45.88,17.9a3.7,3.7,0,1,1,3.7-3.7,3.76,3.76,0,0,1-3.7,3.7m0-3.8-.1.1.1.1Z"/><path class="cls-4" d="M116.88,115.3h-.2L70.08,98.8,19.88,70.7l-.3-.4.2-.5,37.7-34.6,49.3-27.1h.5l.3.4,11,48.6-1.2,57.8-.3.5ZM21.18,70l49.3,27.7,45.8,16.2,1.2-56.8L106.58,9.4,58.08,36.1Z"/><path class="cls-4" d="M106.38,91.4l-.2-.1-60.5-21,.2-.2,48.5-42ZM46.18,70.2,106,91,94.18,28.7Z"/><path class="cls-4" d="M69.88,99.4,57.08,34.7l62.2,22.2ZM58.68,36.5l11.9,60.7L117,57.4Z"/><rect class="cls-4" x="51.25" y="12.62" width="1.2" height="24.5" transform="translate(-5.53 28.58) rotate(-29.33)"/><rect class="cls-4" x="50.04" y="108.71" width="26.2" height="1.2" transform="matrix(0.54, -0.84, 0.84, 0.54, -62.98, 103.86)"/><polygon class="cls-4" points="142.58 59.5 118.08 57.7 118.18 56.5 142.68 58.3 142.58 59.5"/></g></g></svg>